<svg width="31" height="29" viewBox="0 0 31 29" fill="none" xmlns="http://www.w3.org/2000/svg">
<path d="M15.5 3.44375C17.7475 3.44375 19.5688 5.1475 19.5688 7.25C19.5688 9.3525 17.7475 11.0563 15.5 11.0563C13.2525 11.0563 11.4312 9.3525 11.4312 7.25C11.4312 5.1475 13.2525 3.44375 15.5 3.44375ZM15.5 19.7562C21.2544 19.7562 27.3188 22.4025 27.3188 23.5625V25.5563H3.68125V23.5625C3.68125 22.4025 9.74562 19.7562 15.5 19.7562ZM15.5 0C11.2181 0 7.75 3.24437 7.75 7.25C7.75 11.2556 11.2181 14.5 15.5 14.5C19.7819 14.5 23.25 11.2556 23.25 7.25C23.25 3.24437 19.7819 0 15.5 0ZM15.5 16.3125C10.3269 16.3125 0 18.7412 0 23.5625V29H31V23.5625C31 18.7412 20.6731 16.3125 15.5 16.3125Z" fill="black"/>
</svg>
