<svg width="39" height="1095" viewBox="0 0 39 1095" fill="none" xmlns="http://www.w3.org/2000/svg">
<path d="M38.952 38.5056L2.04797 77.0572L-34.952 38.5977L1.95204 0.0460313L38.952 38.5056Z" fill="#8EBF9F"/>
<path d="M38.952 185.609L2.04797 224.161L-34.952 185.701L1.95204 147.149L38.952 185.609Z" fill="#8EBF9F"/>
<path d="M38.952 332.712L2.04797 371.264L-34.952 332.804L1.95204 294.253L38.952 332.712Z" fill="#8EBF9F"/>
<path d="M38.952 479.815L2.04797 518.367L-34.952 479.907L1.95204 441.356L38.952 479.815Z" fill="#8EBF9F"/>
<path d="M38.952 626.919L2.04797 665.47L-34.952 627.011L1.95204 588.459L38.952 626.919Z" fill="#8EBF9F"/>
<path d="M38.952 774.022L2.04797 812.574L-34.952 774.114L1.95204 735.562L38.952 774.022Z" fill="#8EBF9F"/>
<path d="M38.952 921.125L2.04797 959.677L-34.952 921.217L1.95204 882.666L38.952 921.125Z" fill="#8EBF9F"/>
<path d="M38.952 1068.23L2.04797 1106.78L-34.952 1068.32L1.95204 1029.77L38.952 1068.23Z" fill="#8EBF9F"/>
</svg>
