<svg width="37" height="1095" viewBox="0 0 37 1095" fill="none" xmlns="http://www.w3.org/2000/svg">
<path d="M73.952 38.5056L37.048 77.0572L0.0479857 38.5977L36.952 0.0460313L73.952 38.5056Z" fill="#8EBF9F"/>
<path d="M73.952 185.609L37.048 224.161L0.0479857 185.701L36.952 147.149L73.952 185.609Z" fill="#8EBF9F"/>
<path d="M73.952 332.712L37.048 371.264L0.0479857 332.804L36.952 294.253L73.952 332.712Z" fill="#8EBF9F"/>
<path d="M73.952 479.815L37.048 518.367L0.0479857 479.907L36.952 441.356L73.952 479.815Z" fill="#8EBF9F"/>
<path d="M73.952 626.919L37.048 665.47L0.0479857 627.011L36.952 588.459L73.952 626.919Z" fill="#8EBF9F"/>
<path d="M73.952 774.022L37.048 812.574L0.0479857 774.114L36.952 735.562L73.952 774.022Z" fill="#8EBF9F"/>
<path d="M73.952 921.125L37.048 959.677L0.0479857 921.217L36.952 882.666L73.952 921.125Z" fill="#8EBF9F"/>
<path d="M73.952 1068.23L37.048 1106.78L0.0479857 1068.32L36.952 1029.77L73.952 1068.23Z" fill="#8EBF9F"/>
</svg>
