<svg width="29" height="34" viewBox="0 0 29 34" fill="none" xmlns="http://www.w3.org/2000/svg">
<path d="M25.375 11.3333H23.5625V8.09524C23.5625 3.62667 19.5025 0 14.5 0C9.4975 0 5.4375 3.62667 5.4375 8.09524V11.3333H3.625C1.63125 11.3333 0 12.7905 0 14.5714V30.7619C0 32.5429 1.63125 34 3.625 34H25.375C27.3687 34 29 32.5429 29 30.7619V14.5714C29 12.7905 27.3687 11.3333 25.375 11.3333ZM14.5 25.9048C12.5063 25.9048 10.875 24.4476 10.875 22.6667C10.875 20.8857 12.5063 19.4286 14.5 19.4286C16.4937 19.4286 18.125 20.8857 18.125 22.6667C18.125 24.4476 16.4937 25.9048 14.5 25.9048ZM20.1188 11.3333H8.88125V8.09524C8.88125 5.32667 11.4006 3.07619 14.5 3.07619C17.5994 3.07619 20.1188 5.32667 20.1188 8.09524V11.3333Z" fill="black"/>
<path d="M23.0625 11.3333V11.8333H23.5625H25.375C27.1472 11.8333 28.5 13.1182 28.5 14.5714V30.7619C28.5 32.2151 27.1472 33.5 25.375 33.5H3.625C1.85283 33.5 0.5 32.2151 0.5 30.7619V14.5714C0.5 13.1182 1.85283 11.8333 3.625 11.8333H5.4375H5.9375V11.3333V8.09524C5.9375 3.95438 9.71908 0.5 14.5 0.5C19.2809 0.5 23.0625 3.95438 23.0625 8.09524V11.3333ZM20.1188 11.8333H20.6188V11.3333V8.09524C20.6188 4.99895 17.821 2.57619 14.5 2.57619C11.179 2.57619 8.38125 4.99895 8.38125 8.09524V11.3333V11.8333H8.88125H20.1188ZM10.375 22.6667C10.375 24.7753 12.2847 26.4048 14.5 26.4048C16.7153 26.4048 18.625 24.7753 18.625 22.6667C18.625 20.558 16.7153 18.9286 14.5 18.9286C12.2847 18.9286 10.375 20.558 10.375 22.6667Z" stroke="black" stroke-opacity="0.5"/>
</svg>
